<svg xmlns="http://www.w3.org/2000/svg" viewBox="0 0 960 580" font-family="'Pretendard', 'Apple SD Gothic Neo', 'Noto Sans KR', sans-serif">
  <defs>
    <filter id="shadow" x="-4%" y="-4%" width="108%" height="108%">
      <feDropShadow dx="0" dy="2" stdDeviation="4" flood-opacity="0.12"/>
    </filter>
    <linearGradient id="bgGrad" x1="0" y1="0" x2="0" y2="1">
      <stop offset="0%" stop-color="#f0f4f8"/>
      <stop offset="100%" stop-color="#dbe4ee"/>
    </linearGradient>
    <linearGradient id="vmGrad" x1="0" y1="0" x2="0" y2="1">
      <stop offset="0%" stop-color="#ffffff"/>
      <stop offset="100%" stop-color="#f7f9fc"/>
    </linearGradient>
    <linearGradient id="svcGrad" x1="0" y1="0" x2="0" y2="1">
      <stop offset="0%" stop-color="#ffffff"/>
      <stop offset="100%" stop-color="#f5f7fa"/>
    </linearGradient>
    <marker id="arrowR" markerWidth="8" markerHeight="6" refX="8" refY="3" orient="auto">
      <path d="M0,0 L8,3 L0,6" fill="#6366f1"/>
    </marker>
    <marker id="arrowL" markerWidth="8" markerHeight="6" refX="0" refY="3" orient="auto">
      <path d="M8,0 L0,3 L8,6" fill="#6366f1"/>
    </marker>
    <marker id="arrowGreen" markerWidth="8" markerHeight="6" refX="8" refY="3" orient="auto">
      <path d="M0,0 L8,3 L0,6" fill="#16a34a"/>
    </marker>
  </defs>

  <!-- Background -->
  <rect width="960" height="580" rx="16" fill="url(#bgGrad)"/>

  <!-- ===== Slack (왼쪽) ===== -->
  <rect x="24" y="80" width="160" height="360" rx="14" fill="url(#vmGrad)" stroke="#c8d6e5" stroke-width="1.5" filter="url(#shadow)"/>
  <rect x="24" y="80" width="160" height="44" rx="14" fill="#611f69"/>
  <rect x="24" y="110" width="160" height="14" fill="#611f69"/>
  <text x="42" y="108" fill="#fff" font-size="15" font-weight="700">Slack</text>

  <rect x="40" y="140" width="128" height="44" rx="8" fill="#f3e8ff" stroke="#c084fc" stroke-width="1"/>
  <text x="56" y="167" fill="#6b21a8" font-size="12" font-weight="600">자연어 대화</text>

  <rect x="40" y="198" width="128" height="44" rx="8" fill="#ecfdf5" stroke="#86efac" stroke-width="1"/>
  <text x="56" y="225" fill="#166534" font-size="12" font-weight="600">크론 알림 (4회)</text>

  <rect x="40" y="256" width="128" height="44" rx="8" fill="#fefce8" stroke="#fbbf24" stroke-width="1"/>
  <text x="56" y="278" fill="#92400e" font-size="11" font-weight="600">루틴 체크리스트</text>
  <text x="56" y="292" fill="#78716c" font-size="10">(Block Kit 버튼)</text>

  <rect x="40" y="314" width="128" height="44" rx="8" fill="#eff6ff" stroke="#93c5fd" stroke-width="1"/>
  <text x="56" y="341" fill="#1e40af" font-size="12" font-weight="600">App Home 탭</text>

  <rect x="40" y="372" width="128" height="44" rx="8" fill="#fef2f2" stroke="#fca5a5" stroke-width="1"/>
  <text x="56" y="394" fill="#991b1b" font-size="11" font-weight="600">인사이트 넛지</text>
  <text x="56" y="408" fill="#78716c" font-size="10">(Pure SQL 감지)</text>

  <!-- ===== Slack → VM 화살표 ===== -->
  <line x1="188" y1="200" x2="238" y2="200" stroke="#6366f1" stroke-width="2" marker-end="url(#arrowR)"/>
  <line x1="238" y1="220" x2="188" y2="220" stroke="#6366f1" stroke-width="2" marker-end="url(#arrowL)"/>
  <text x="192" y="195" fill="#4338ca" font-size="9" font-weight="600">Socket Mode</text>

  <!-- ===== Oracle Cloud VM (중앙) ===== -->
  <rect x="244" y="30" width="330" height="520" rx="14" fill="url(#vmGrad)" stroke="#c8d6e5" stroke-width="1.5" filter="url(#shadow)"/>
  <rect x="244" y="30" width="330" height="44" rx="14" fill="#7c3aed"/>
  <rect x="244" y="60" width="330" height="14" fill="#7c3aed"/>
  <text x="262" y="58" fill="#fff" font-size="14" font-weight="700">Oracle Cloud VM (Docker)</text>

  <!-- Node.js + Slack Bolt -->
  <rect x="262" y="90" width="294" height="36" rx="8" fill="#e8f4fd" stroke="#93c5fd" stroke-width="1"/>
  <text x="280" y="113" fill="#1e40af" font-size="13" font-weight="600">Node.js + Slack Bolt (TypeScript)</text>

  <!-- Agent Loop -->
  <rect x="262" y="140" width="294" height="90" rx="10" fill="#fefce8" stroke="#fbbf24" stroke-width="1"/>
  <text x="280" y="164" fill="#92400e" font-size="13" font-weight="700">Agent Loop</text>
  <text x="280" y="184" fill="#78716c" font-size="11">LLM ↔ SQL 도구 자율 반복 (tool use)</text>
  <text x="280" y="202" fill="#78716c" font-size="11">query_db · modify_db · get_schema</text>
  <text x="280" y="220" fill="#78716c" font-size="11">SQL 감사 로그 + user_id 검증 + 10s 타임아웃</text>

  <!-- Cron -->
  <rect x="262" y="244" width="294" height="58" rx="10" fill="#ecfdf5" stroke="#86efac" stroke-width="1"/>
  <text x="280" y="268" fill="#166534" font-size="13" font-weight="700">node-cron (Asia/Seoul)</text>
  <text x="280" y="288" fill="#78716c" font-size="11">프로액티브 인사이트 (5 SQL 패턴 감지)</text>

  <!-- Security Layer -->
  <rect x="262" y="316" width="294" height="68" rx="10" fill="#fef2f2" stroke="#f87171" stroke-width="1"/>
  <text x="280" y="340" fill="#991b1b" font-size="13" font-weight="700">Security Layer</text>
  <text x="280" y="358" fill="#78716c" font-size="11">Rate Limiter (슬라이딩 윈도우 5req/min)</text>
  <text x="280" y="374" fill="#78716c" font-size="11">메시지 크기 제한 · 프롬프트 인젝션 차단</text>

  <!-- DB Proxy -->
  <rect x="262" y="398" width="294" height="60" rx="10" fill="#f0fdf4" stroke="#22c55e" stroke-width="1.5"/>
  <text x="280" y="422" fill="#166534" font-size="13" font-weight="700">DB Proxy API (:3100)</text>
  <text x="280" y="440" fill="#78716c" font-size="11">Bearer 인증 · 1MB 제한 · /health 헬스체크</text>

  <!-- PostgreSQL (VM 내부) -->
  <rect x="262" y="472" width="294" height="60" rx="10" fill="#eff6ff" stroke="#3b82f6" stroke-width="1.5"/>
  <text x="280" y="496" fill="#1e40af" font-size="13" font-weight="700">PostgreSQL (Docker — 내부 전용)</text>
  <text x="280" y="516" fill="#78716c" font-size="11">TLS 암호화 · expose:5432 (외부 미노출)</text>

  <!-- DB Proxy → PostgreSQL 내부 연결 -->
  <line x1="409" y1="458" x2="409" y2="472" stroke="#3b82f6" stroke-width="2" marker-end="url(#arrowR)"/>
  <text x="416" y="468" fill="#2563eb" font-size="8" font-weight="600">localhost</text>

  <!-- ===== VM → AI 화살표 ===== -->
  <line x1="578" y1="150" x2="622" y2="110" stroke="#6366f1" stroke-width="2" marker-end="url(#arrowR)"/>
  <text x="580" y="142" fill="#4338ca" font-size="9" font-weight="600">Tool Use</text>

  <!-- ===== 외부 서비스 (오른쪽) ===== -->

  <!-- Claude Sonnet -->
  <rect x="628" y="50" width="304" height="100" rx="12" fill="url(#svcGrad)" stroke="#c8d6e5" stroke-width="1.5" filter="url(#shadow)"/>
  <rect x="628" y="50" width="304" height="36" rx="12" fill="#d97706"/>
  <rect x="628" y="74" width="304" height="12" fill="#d97706"/>
  <text x="646" y="74" fill="#fff" font-size="13" font-weight="700">Claude Sonnet (단일 LLM)</text>
  <text x="646" y="110" fill="#78716c" font-size="11">자연어 이해 · SQL 생성 · 크로스 분석 · 인사이트</text>
  <text x="646" y="128" fill="#78716c" font-size="11">크론 메시지 생성 · 주간 리포트 · Pure SQL 비용 최적화</text>

  <!-- Caddy + TLS -->
  <rect x="628" y="170" width="304" height="70" rx="12" fill="url(#svcGrad)" stroke="#c8d6e5" stroke-width="1.5" filter="url(#shadow)"/>
  <rect x="628" y="170" width="304" height="36" rx="12" fill="#16a34a"/>
  <rect x="628" y="194" width="304" height="12" fill="#16a34a"/>
  <text x="646" y="194" fill="#fff" font-size="13" font-weight="700">Caddy (리버스 프록시)</text>
  <text x="646" y="224" fill="#78716c" font-size="11">Let's Encrypt 자동 TLS · HTTPS → :3100 프록시</text>

  <!-- Caddy → DB Proxy 화살표 -->
  <line x1="628" y1="220" x2="560" y2="428" stroke="#16a34a" stroke-width="2" marker-end="url(#arrowGreen)"/>
  <text x="574" y="330" fill="#16a34a" font-size="9" font-weight="600" transform="rotate(-55, 574, 330)">HTTPS → :3100</text>

  <!-- Vercel -->
  <rect x="628" y="260" width="304" height="100" rx="12" fill="url(#svcGrad)" stroke="#c8d6e5" stroke-width="1.5" filter="url(#shadow)"/>
  <rect x="628" y="260" width="304" height="36" rx="12" fill="#171717"/>
  <rect x="628" y="284" width="304" height="12" fill="#171717"/>
  <text x="646" y="284" fill="#fff" font-size="13" font-weight="700">Vercel (Next.js 웹 대시보드)</text>
  <text x="646" y="316" fill="#78716c" font-size="11">캘린더 · 백로그 · 카테고리 뷰 · DnD</text>
  <text x="646" y="334" fill="#78716c" font-size="11">반응형 UI + PWA · GitHub push 자동 배포</text>
  <text x="646" y="350" fill="#16a34a" font-size="11" font-weight="600">→ DB Proxy API (HTTPS) 경유</text>

  <!-- Vercel → Caddy 화살표 -->
  <line x1="780" y1="260" x2="780" y2="240" stroke="#16a34a" stroke-width="2" marker-end="url(#arrowGreen)"/>
  <text x="786" y="254" fill="#16a34a" font-size="9" font-weight="600">HTTPS</text>

  <!-- CI/CD -->
  <rect x="628" y="380" width="304" height="68" rx="12" fill="url(#svcGrad)" stroke="#c8d6e5" stroke-width="1.5" filter="url(#shadow)"/>
  <rect x="628" y="380" width="304" height="36" rx="12" fill="#4f46e5"/>
  <rect x="628" y="404" width="304" height="12" fill="#4f46e5"/>
  <text x="646" y="404" fill="#fff" font-size="13" font-weight="700">CI/CD</text>
  <text x="646" y="432" fill="#78716c" font-size="11">GitHub Actions (lint + type-check + test)</text>
  <text x="646" y="448" fill="#78716c" font-size="10">yarn deploy (VM) · Vercel 자동 배포 (웹)</text>

  <!-- 보안 범례 -->
  <rect x="628" y="468" width="304" height="82" rx="12" fill="#fef2f2" stroke="#f87171" stroke-width="1" stroke-dasharray="4,3"/>
  <text x="646" y="490" fill="#991b1b" font-size="12" font-weight="700">보안 아키텍처</text>
  <text x="646" y="508" fill="#78716c" font-size="10">DB 포트 외부 미노출 · Bearer API Key 인증</text>
  <text x="646" y="522" fill="#78716c" font-size="10">TLS 암호화 (DB + HTTPS) · SQL 감사 로그</text>
  <text x="646" y="536" fill="#78716c" font-size="10">Rate Limiting · user_id 격리 · 프롬프트 인젝션 차단</text>

  <!-- 타이틀 -->
  <text x="480" y="18" fill="#334155" font-size="11" font-weight="600" text-anchor="middle">Slack AI Agent — 개인 라이프 데이터 에이전트 아키텍처 (v3)</text>
</svg>
